<svg xmlns="http://www.w3.org/2000/svg" width="18.401" height="15.42" viewBox="0 0 18.401 15.42">
  <g id="customer_1_" data-name="customer (1)" transform="translate(0 -33.314)">
    <circle id="Ellipse_23" data-name="Ellipse 23" cx="3" cy="3" r="3" transform="translate(6.201 33.314)" fill="#fff"/>
    <circle id="Ellipse_24" data-name="Ellipse 24" cx="2" cy="2" r="2" transform="translate(13.201 35.314)" fill="#fff"/>
    <circle id="Ellipse_25" data-name="Ellipse 25" cx="2" cy="2" r="2" transform="translate(1.201 35.314)" fill="#fff"/>
    <path id="Path_223" data-name="Path 223" d="M4.823,241.085a3.2,3.2,0,0,0-2.382-.553A2.436,2.436,0,0,0,0,242.957v3.925a1.056,1.056,0,0,0,1.057,1.053c2.517,0,2.214.046,2.214-.109C3.271,245.046,2.941,243.006,4.823,241.085Z" transform="translate(0 -200.377)" fill="#fff"/>
    <path id="Path_224" data-name="Path 224" d="M125.922,239.892a5.336,5.336,0,0,0-4.116.974c-1.972,1.579-1.592,3.706-1.592,6.307a1.261,1.261,0,0,0,1.259,1.259c7.586,0,7.888.245,8.338-.751.148-.337.107-.23.107-3.453A4.357,4.357,0,0,0,125.922,239.892Z" transform="translate(-115.865 -199.724)" fill="#fff"/>
    <path id="Path_225" data-name="Path 225" d="M380.192,240.533a3.194,3.194,0,0,0-2.382.553c1.868,1.907,1.552,3.807,1.552,6.742,0,.155-.252.109,2.176.109a1.094,1.094,0,0,0,1.095-1.09v-3.888A2.436,2.436,0,0,0,380.192,240.533Z" transform="translate(-364.231 -200.379)" fill="#fff"/>
  </g>
</svg>
