<svg id="full-logo" xmlns="http://www.w3.org/2000/svg" width="164.184" height="40.554" viewBox="0 0 164.184 40.554">
  <path id="Path_3" data-name="Path 3" d="M3.89,16.251V14.391C3.89,9.1,8.1,4.43,13.364,4.43a9.539,9.539,0,0,1,7.925,4.582,1.555,1.555,0,0,1-.465,1.97,1.549,1.549,0,0,1-1.992-.509,6.476,6.476,0,0,0-5.468-3.121A6.8,6.8,0,0,0,6.79,14.391v2.014" transform="translate(4.721 5.376)" fill="#140e33"/>
  <path id="Path_4" data-name="Path 4" d="M67.872,30.623H53A11.814,11.814,0,0,1,41.22,18.846h0A11.814,11.814,0,0,1,53,7.07H67.872A11.814,11.814,0,0,1,79.648,18.846h0A11.828,11.828,0,0,1,67.872,30.623Z" transform="translate(50.025 8.58)" fill="#9485e0"/>
  <g id="Group_1" data-name="Group 1" transform="translate(0 5.401)">
    <path id="Path_5" data-name="Path 5" d="M81.306,15.522a9.394,9.394,0,0,0-6.752-2.944,9.3,9.3,0,0,0-6.707,2.944,10.452,10.452,0,0,0-2.723,7.017V34.515h-8.08a4.171,4.171,0,0,1-4.184-4.206V3.9a1.461,1.461,0,1,0-2.922,0V30.309a4.162,4.162,0,0,1-4.206,4.206H40.753a4.162,4.162,0,0,1-4.206-4.206V3.9a1.461,1.461,0,0,0-2.922,0V30.309a4.162,4.162,0,0,1-4.206,4.206H9.585a6.8,6.8,0,0,1-7.039-6.574,6.793,6.793,0,0,1,7.039-6.53H26.364a1.648,1.648,0,0,0,1.461-1.461,1.628,1.628,0,0,0-1.461-1.461H17.156l-8.478.133-.4.022a10.207,10.207,0,0,0-5.335,2.612,9.087,9.087,0,0,0,0,13.392,10.282,10.282,0,0,0,7.017,2.767h19.5a7.159,7.159,0,0,0,5.667-2.9,7.159,7.159,0,0,0,5.667,2.9h4.959a7.159,7.159,0,0,0,5.667-2.9,7.108,7.108,0,0,0,5.623,2.9H76.9a7.285,7.285,0,0,0,7.128-7.128v-7.77A10.481,10.481,0,0,0,81.306,15.522Zm-.177,9.164v5.623a4.162,4.162,0,0,1-4.206,4.206h-8.9V22.54a6.569,6.569,0,1,1,13.1,0Z" transform="translate(0 -2.44)" fill="#140e33"/>
    <path id="Path_6" data-name="Path 6" d="M34.481,8.88a1.571,1.571,0,0,0,1.461-1.461V4.231A1.571,1.571,0,0,0,34.481,2.77,1.628,1.628,0,0,0,33.02,4.231V7.419A1.608,1.608,0,0,0,34.481,8.88Z" transform="translate(40.074 -2.04)" fill="#140e33"/>
  </g>
  <g id="Group_2" data-name="Group 2" transform="translate(88.965 14.256)">
    <path id="Path_7" data-name="Path 7" d="M75.143,32.738h-21.8a13.149,13.149,0,1,1,0-26.3h21.8a13.149,13.149,0,0,1,0,26.3ZM53.339,9.827a9.762,9.762,0,1,0,0,19.524h21.8a9.762,9.762,0,0,0,0-19.524h-21.8Z" transform="translate(-40.19 -6.44)" fill="#140e33"/>
  </g>
  <g id="Group_4" data-name="Group 4" transform="translate(101.384)">
    <g id="Group_3" data-name="Group 3">
      <path id="Path_8" data-name="Path 8" d="M47.991,22.49A2.182,2.182,0,0,0,50.183,20.3V11.622a7.239,7.239,0,0,1,14.477,0V20.3a2.191,2.191,0,0,0,4.383,0V11.622a11.622,11.622,0,0,0-23.243,0V20.3A2.2,2.2,0,0,0,47.991,22.49Z" transform="translate(-45.8)" fill="#140e33"/>
    </g>
  </g>
  <g id="Group_11" data-name="Group 11" transform="translate(139.037 23.619)">
    <g id="Group_6" data-name="Group 6" transform="translate(9.341)">
      <g id="Group_5" data-name="Group 5">
        <path id="Path_9" data-name="Path 9" d="M68.823,14.256H81.042a1.793,1.793,0,1,0,0-3.586H68.823a1.793,1.793,0,0,0,0,3.586Z" transform="translate(-67.03 -10.67)" fill="#140e33"/>
      </g>
    </g>
    <g id="Group_8" data-name="Group 8">
      <g id="Group_7" data-name="Group 7">
        <path id="Path_10" data-name="Path 10" d="M64.6,14.256h4.1a1.793,1.793,0,0,0,0-3.586H64.6a1.786,1.786,0,0,0-1.793,1.793A1.814,1.814,0,0,0,64.6,14.256Z" transform="translate(-62.81 -10.67)" fill="#140e33"/>
      </g>
    </g>
    <g id="Group_10" data-name="Group 10" transform="translate(6.619 6.11)">
      <g id="Group_9" data-name="Group 9">
        <path id="Path_11" data-name="Path 11" d="M67.593,17.016h6.331a1.793,1.793,0,0,0,0-3.586H67.593a1.793,1.793,0,1,0,0,3.586Z" transform="translate(-65.8 -13.43)" fill="#140e33"/>
      </g>
    </g>
  </g>
</svg>
