<svg xmlns="http://www.w3.org/2000/svg" width="102.38" height="148.235" viewBox="0 0 102.38 148.235">
  <g id="Group_137" data-name="Group 137" transform="translate(-530.905 -253.882)">
    <path id="blob" d="M56.171-16.554c11.553,18.971,16.3,43.171,7.053,62.384C53.86,65.166,30.633,79.637,12.392,76.84-5.971,73.922-19.347,53.735-27.13,35.372c-7.661-18.484-9.85-35.144-3.162-51.2S-8.038-47.442,8.987-48.293,44.5-35.4,56.171-16.554Z" transform="translate(565.181 318.331)" fill="#9485e0" opacity="0.12"/>
    <g id="Group_23" data-name="Group 23" transform="translate(91.22 -171.118)">
      <path id="Path_87" data-name="Path 87" d="M472.309,621.982V572.6s1.643-8.612,9.408-8.2,46.384,0,46.384,0l7.765,5.926V621l-5.313,6.539h-50.88Z" transform="translate(-12.239 -58.039)" fill="#ffd782"/>
      <path id="Path_86" data-name="Path 86" d="M502.643,472.451s1.86-39.156,15.067-40.923,13.765,42.225,13.765,42.225l-6.976-1.3-10.51-.558-7.906,1.488Z" transform="translate(-24.87 -2.697)" fill="#9485e0"/>
      <path id="Path_88" data-name="Path 88" d="M570.932,566.9s3.909-3.772,5.324,11,0,44.954,0,44.954l-5.816,4.4.492.786Z" transform="translate(-53.1 -58.907)" fill="#ffaf5f" opacity="0.32"/>
      <path id="Path_89" data-name="Path 89" d="M508.221,566.47v16.416l1.209,1.767,9.487-5.395,9.58,5.395,2.6-4V566.47Z" transform="translate(-27.193 -58.907)" fill="#ffaf5f"/>
      <g id="XMLID_1593_" transform="translate(442.916 425)">
        <g id="XMLID_594_">
          <path id="XMLID_1830_" d="M184.227,49.364a49.364,49.364,0,1,0-98.727,0,2.894,2.894,0,0,0,1.11,2.278l33.11,25.951h-5.7A14.493,14.493,0,0,0,99.542,92.068v7.817a2.9,2.9,0,1,0,5.79,0V92.068a8.7,8.7,0,0,1,8.686-8.686h6.374v19.7a2.9,2.9,0,0,0,4.582,2.353l9.894-7.091,9.894,7.091a2.9,2.9,0,0,0,4.582-2.353v-19.7h6.365a8.7,8.7,0,0,1,8.686,8.686v41.691a8.7,8.7,0,0,1-8.686,8.686H114.018a8.7,8.7,0,0,1-8.686-8.686v-7.817a2.9,2.9,0,0,0-5.79,0v7.817a14.493,14.493,0,0,0,14.476,14.476h41.691a14.493,14.493,0,0,0,14.476-14.476V92.068a14.493,14.493,0,0,0-14.476-14.476h-5.7l33.11-25.951A2.894,2.894,0,0,0,184.227,49.364Zm-6.22-6.126a24.9,24.9,0,0,0-24.868.317c-.427-10.527-2.012-20.3-4.57-27.965a41.479,41.479,0,0,0-3.893-8.684A43.688,43.688,0,0,1,178.008,43.238ZM134.864,5.79c2,0,5.349,3.046,8.212,11.631,2.363,7.083,3.838,16.155,4.263,26a24.855,24.855,0,0,0-24.949,0c.424-9.845,1.9-18.917,4.263-26,2.863-8.585,6.213-11.631,8.212-11.631Zm12.007,44.323-12,27.356L122.863,50.108a19.045,19.045,0,0,1,24.008.005Zm-29.915.945,11.375,25.925-35.345-27.7A19.035,19.035,0,0,1,116.956,51.058Zm35.829-.014a19.035,19.035,0,0,1,23.957-1.762L141.409,76.974ZM125.051,6.906a41.472,41.472,0,0,0-3.893,8.684c-2.558,7.67-4.143,17.438-4.57,27.965a24.9,24.9,0,0,0-24.868-.317A43.687,43.687,0,0,1,125.051,6.906Zm18.5,90.54-7-5.016a2.9,2.9,0,0,0-3.374,0l-7,5.016V83.382h17.371Z" transform="translate(-85.5)" fill="#160b4e"/>
          <path id="XMLID_1839_" d="M294.87,449.462a2.9,2.9,0,0,0,0-5.79H285.9a2.9,2.9,0,1,0,0,5.79Z" transform="translate(-225.819 -315.219)" fill="#160b4e"/>
          <path id="XMLID_1841_" d="M136.9,385.79a2.9,2.9,0,1,0-2.047-.849A2.916,2.916,0,0,0,136.9,385.79Z" transform="translate(-119.958 -269.982)" fill="#160b4e"/>
        </g>
      </g>
    </g>
  </g>
</svg>
