<svg xmlns="http://www.w3.org/2000/svg" width="108.432" height="125.518" viewBox="0 0 108.432 125.518">
  <g id="Group_135" data-name="Group 135" transform="translate(-922.783 -256)">
    <path id="blob" d="M56.171-16.554c11.553,18.971,16.3,43.171,7.053,62.384C53.86,65.166,30.633,79.637,12.392,76.84-5.971,73.922-19.347,53.735-27.13,35.372c-7.661-18.484-9.85-35.144-3.162-51.2S-8.038-47.442,8.987-48.293,44.5-35.4,56.171-16.554Z" transform="translate(960.181 304.331)" fill="#9485e0" opacity="0.12"/>
    <g id="target" transform="translate(922.782 274.228)">
      <path id="Path_62" data-name="Path 62" d="M161.339,250.427l14.291-14.141c5.338-5.338,15.6,1.4,10.057,7.921l-17.3,20.359a12.14,12.14,0,0,1-2.315,2.1,17.263,17.263,0,0,1-9.385,2.377H131a48.186,48.186,0,0,0-5.558.322l-7.386.83-15.319-14.866s8.69-16.411,25.738-11.694a36.708,36.708,0,0,0,9.8,1.3h16.877c7.945,0,8.008,12.624-.066,12.624H140.39" transform="translate(-80.979 -184.328)" fill="#ffcdac"/>
      <path id="Path_63" data-name="Path 63" d="M34.952,349.9l14.574-14.952a.01.01,0,0,0,0-.015l-24.73-24a.011.011,0,0,0-.015,0L10.07,326.209Zm0,0" transform="translate(-7.937 -244.689)" fill="#9485e0"/>
      <path id="Path_64" data-name="Path 64" d="M62,100.317a9.1,9.1,0,0,0-8.234,9.062v9.692A3.031,3.031,0,0,0,56.8,122.1H77.581a3.031,3.031,0,0,0,3.031-3.031v-9.692a9.1,9.1,0,0,0-8.245-9.063" transform="translate(-42.378 -78.677)" fill="#9485e0"/>
      <path id="Path_65" data-name="Path 65" d="M89.466,21A10.17,10.17,0,1,1,79.3,10.832,10.17,10.17,0,0,1,89.466,21Zm0,0" transform="translate(-54.485 -8.144)" fill="#ffcdac"/>
      <path id="Path_66" data-name="Path 66" d="M188.766,100.317a9.1,9.1,0,0,0-8.235,9.062v9.692a3.032,3.032,0,0,0,3.032,3.031h20.784a3.031,3.031,0,0,0,3.031-3.031v-9.692a9.1,9.1,0,0,0-8.245-9.063" transform="translate(-142.297 -78.677)" fill="#6555b5"/>
      <path id="Path_67" data-name="Path 67" d="M216.232,21a10.171,10.171,0,1,1-10.17-10.171A10.17,10.17,0,0,1,216.232,21Zm0,0" transform="translate(-154.403 -8.144)" fill="#ffcdac"/>
      <path id="Path_68" data-name="Path 68" d="M315.536,100.317a9.1,9.1,0,0,0-8.235,9.062v9.692a3.032,3.032,0,0,0,3.031,3.031h20.784a3.032,3.032,0,0,0,3.032-3.031v-9.692a9.1,9.1,0,0,0-8.245-9.063" transform="translate(-242.22 -78.677)" fill="#9485e0"/>
      <path id="Path_69" data-name="Path 69" d="M343,21a10.171,10.171,0,1,1-10.171-10.171A10.171,10.171,0,0,1,343,21Zm0,0" transform="translate(-254.326 -8.144)" fill="#ffcdac"/>
      <path id="Path_70" data-name="Path 70" d="M105.871,226.573a9.822,9.822,0,0,0-6.058-2.538,8.672,8.672,0,0,0-6.663,2.536L81.093,238.5a8.005,8.005,0,0,0-.816-1.164,7.816,7.816,0,0,0-6.107-2.731H57.293a34.618,34.618,0,0,1-9.227-1.226,22.7,22.7,0,0,0-21.179,4.481,30.8,30.8,0,0,0-5.515,5.92l-3.026-2.937a2.151,2.151,0,0,0-1.492-.606h-.014a2.156,2.156,0,0,0-1.53.657L.6,256.169a2.135,2.135,0,0,0,.065,3.025l24.882,23.692a2.132,2.132,0,0,0,3-.055l14.574-14.952a2.145,2.145,0,0,0-.042-3.035l-1.269-1.231,2.9-.327a46.167,46.167,0,0,1,5.313-.308H75.7a19.279,19.279,0,0,0,10.534-2.713l.069-.046a14.214,14.214,0,0,0,2.721-2.47l17.3-20.358c2.962-3.484,2.776-7.831-.462-10.817ZM26.96,278.343l-21.8-20.76L16.9,245.39l21.675,21.033Zm76.122-43.716-17.3,20.359a9.971,9.971,0,0,1-1.873,1.707,15.169,15.169,0,0,1-8.2,2.019H50.023a50.374,50.374,0,0,0-5.8.336l-6.385.716L24.472,246.791a26.605,26.605,0,0,1,5.112-5.624,18.361,18.361,0,0,1,17.344-3.675,38.877,38.877,0,0,0,10.365,1.381H74.171c3.031,0,3.84,2.626,3.84,4.177a4.619,4.619,0,0,1-1,2.96,3.625,3.625,0,0,1-2.909,1.22H59.411a2.133,2.133,0,0,0,0,4.266H74.1a7.91,7.91,0,0,0,6.16-2.725,8.76,8.76,0,0,0,2.009-5.435L96.159,229.6a4.993,4.993,0,0,1,6.82.113c.9.827,2.1,2.565.1,4.917Zm0,0" transform="translate(0 -176.185)" fill="#160b4e"/>
      <path id="Path_71" data-name="Path 71" d="M233.448,334.868a2.133,2.133,0,1,0-4.153.974l.02.087a2.134,2.134,0,0,0,2.075,1.646,2.16,2.16,0,0,0,.489-.056,2.133,2.133,0,0,0,1.59-2.564Zm0,0" transform="translate(-180.689 -262.257)"/>
      <path id="Path_72" data-name="Path 72" d="M48.856,45.5H69.64a5.133,5.133,0,0,0,3.031-.988A5.133,5.133,0,0,0,75.7,45.5H96.488a5.133,5.133,0,0,0,3.031-.988,5.133,5.133,0,0,0,3.031.988h20.784a5.17,5.17,0,0,0,5.164-5.165V30.647a11.184,11.184,0,0,0-6.083-10,12.3,12.3,0,1,0-18.946,0,11.173,11.173,0,0,0-3.95,3.387,11.152,11.152,0,0,0-3.951-3.387,12.3,12.3,0,1,0-18.945,0,11.152,11.152,0,0,0-3.951,3.387,11.163,11.163,0,0,0-3.951-3.388,12.3,12.3,0,1,0-18.945,0,11.186,11.186,0,0,0-6.084,10v9.691A5.171,5.171,0,0,0,48.856,45.5ZM112.943,4.766A8.038,8.038,0,1,1,104.9,12.8,8.047,8.047,0,0,1,112.943,4.766ZM107.4,23.784a12.26,12.26,0,0,0,11.082,0,6.931,6.931,0,0,1,5.75,6.862v9.692a.9.9,0,0,1-.9.9H102.55a.9.9,0,0,1-.9-.9V30.647A6.931,6.931,0,0,1,107.4,23.784ZM86.1,4.766A8.038,8.038,0,1,1,78.057,12.8,8.047,8.047,0,0,1,86.1,4.766ZM80.554,23.784a12.26,12.26,0,0,0,11.082,0,6.931,6.931,0,0,1,5.75,6.862v9.692a.9.9,0,0,1-.9.9H75.7a.9.9,0,0,1-.9-.9V30.647A6.932,6.932,0,0,1,80.554,23.784ZM59.248,4.766A8.038,8.038,0,1,1,51.21,12.8,8.047,8.047,0,0,1,59.248,4.766ZM47.957,30.647a6.932,6.932,0,0,1,5.75-6.862,12.26,12.26,0,0,0,11.082,0,6.931,6.931,0,0,1,5.75,6.862v9.692a.9.9,0,0,1-.9.9H48.856a.9.9,0,0,1-.9-.9Zm0,0" transform="translate(-34.437 0)" fill="#160b4e"/>
    </g>
  </g>
</svg>
