<svg xmlns="http://www.w3.org/2000/svg" width="108.432" height="125.518" viewBox="0 0 108.432 125.518">
  <g id="Group_136" data-name="Group 136" transform="translate(-725.783 -265)">
    <path id="blob" d="M56.171-16.554c11.553,18.971,16.3,43.171,7.053,62.384C53.86,65.166,30.633,79.637,12.392,76.84-5.971,73.922-19.347,53.735-27.13,35.372c-7.661-18.484-9.85-35.144-3.162-51.2S-8.038-47.442,8.987-48.293,44.5-35.4,56.171-16.554Z" transform="translate(762.181 313.331)" fill="#9485e0" opacity="0.12"/>
    <g id="Group_24" data-name="Group 24" transform="translate(-4 77)">
      <g id="target" transform="translate(729.783 254.066)">
        <path id="Path_62" data-name="Path 62" d="M128.682,250.427l-14.291-14.141c-5.338-5.338-15.6,1.4-10.057,7.921l17.3,20.359a12.14,12.14,0,0,0,2.315,2.1,17.263,17.263,0,0,0,9.385,2.377h25.68a48.187,48.187,0,0,1,5.558.322l7.386.83,15.319-14.866s-8.69-16.411-25.738-11.694a36.708,36.708,0,0,1-9.8,1.3H134.872c-7.945,0-8.008,12.624.066,12.624h14.692" transform="translate(-100.609 -232.166)" fill="#ffcdac"/>
        <path id="Path_63" data-name="Path 63" d="M24.647,349.9,10.073,334.949a.01.01,0,0,1,0-.015l24.73-24a.011.011,0,0,1,.015,0l14.711,15.273Zm0,0" transform="translate(56.77 -292.527)" fill="#9485e0"/>
        <path id="Path_70" data-name="Path 70" d="M2.563,226.573a9.822,9.822,0,0,1,6.058-2.538,8.672,8.672,0,0,1,6.663,2.536L27.341,238.5a8.005,8.005,0,0,1,.816-1.164,7.816,7.816,0,0,1,6.107-2.731H51.141a34.618,34.618,0,0,0,9.227-1.226,22.7,22.7,0,0,1,21.179,4.481,30.8,30.8,0,0,1,5.515,5.92l3.026-2.937a2.151,2.151,0,0,1,1.492-.606H91.6a2.156,2.156,0,0,1,1.53.657l14.711,15.272a2.135,2.135,0,0,1-.065,3.025L82.89,282.886a2.132,2.132,0,0,1-3-.055L65.317,267.878a2.145,2.145,0,0,1,.042-3.035l1.269-1.231-2.9-.327a46.167,46.167,0,0,0-5.313-.308H32.731A19.279,19.279,0,0,1,22.2,260.265l-.069-.046a14.214,14.214,0,0,1-2.721-2.47L2.1,237.39c-2.962-3.484-2.776-7.831.462-10.817Zm78.911,51.77,21.8-20.76L91.531,245.39,69.856,266.424ZM5.352,234.627l17.3,20.359a9.971,9.971,0,0,0,1.873,1.707,15.169,15.169,0,0,0,8.2,2.019h25.68a50.374,50.374,0,0,1,5.8.336l6.385.716,13.369-12.973a26.606,26.606,0,0,0-5.112-5.624,18.361,18.361,0,0,0-17.344-3.675,38.877,38.877,0,0,1-10.365,1.381H34.263c-3.031,0-3.84,2.626-3.84,4.177a4.619,4.619,0,0,0,1,2.96,3.625,3.625,0,0,0,2.909,1.22H49.022a2.133,2.133,0,0,1,0,4.266H34.33a7.91,7.91,0,0,1-6.16-2.725,8.76,8.76,0,0,1-2.009-5.435L12.275,229.6a4.993,4.993,0,0,0-6.82.113c-.9.827-2.1,2.565-.1,4.917Zm0,0" transform="translate(-0.001 -224.023)" fill="#160b4e"/>
        <path id="Path_71" data-name="Path 71" d="M229.316,334.868a2.133,2.133,0,1,1,4.153.974l-.02.087a2.134,2.134,0,0,1-2.075,1.646,2.16,2.16,0,0,1-.489-.056,2.133,2.133,0,0,1-1.59-2.564Zm0,0" transform="translate(-173.642 -310.095)"/>
      </g>
      <g id="brand-identity" transform="translate(729.855 176.336)">
        <path id="Path_73" data-name="Path 73" d="M84.289,167.816,74.934,120H33.355L24,167.816Z" transform="translate(0 -90.487)" fill="#ffd782"/>
        <path id="Path_74" data-name="Path 74" d="M48.947,167.816H24l.317-1.618L33.355,120h6.237l9.038,46.2Z" transform="translate(0 -90.487)" fill="#ffaf5f"/>
        <path id="Path_75" data-name="Path 75" d="M48.947,341.829H47.323l-10.849-9.042-10.849,9.042H24l.317-1.618,11.117-9.264V320h2.079v10.947l11.117,9.264Z" transform="translate(0 -264.5)" fill="#c16b16"/>
        <path id="Path_76" data-name="Path 76" d="M112,120h2.079v18.71H112Z" transform="translate(-76.566 -90.487)" fill="#c16b16"/>
        <path id="Path_77" data-name="Path 77" d="M112,280h2.079v2.079H112Z" transform="translate(-76.566 -229.697)" fill="#c16b16"/>
        <g id="Group_22" data-name="Group 22" transform="translate(53.105 45.271)">
          <circle id="Ellipse_1" data-name="Ellipse 1" cx="4" cy="4" r="4" transform="translate(6.039 0.394)" fill="#ffaf5f"/>
          <path id="Path_78" data-name="Path 78" d="M264,336h5.2v2.079H264Z" transform="translate(-261.921 -323.692)" fill="#ffaf5f"/>
          <path id="Path_79" data-name="Path 79" d="M320,336h10.395v2.079H320Z" transform="translate(-310.645 -323.692)" fill="#ffaf5f"/>
          <path id="Path_80" data-name="Path 80" d="M248,368h12.474v2.079H248Z" transform="translate(-248 -351.534)" fill="#ffaf5f"/>
          <path id="Path_81" data-name="Path 81" d="M360,368h8.316v2.079H360Z" transform="translate(-345.447 -351.534)" fill="#ffaf5f"/>
        </g>
        <path id="Path_82" data-name="Path 82" d="M214.553,29.513h-2.079V23.276a5.2,5.2,0,1,0-10.395,0v6.237H200V23.276a7.276,7.276,0,0,1,14.553,0Z" transform="translate(-153.132)" fill="#bc7024"/>
        <path id="Path_83" data-name="Path 83" d="M254.553,37.829h-2.079V23.276a5.2,5.2,0,1,0-10.395,0V37.829H240V23.276a7.276,7.276,0,0,1,14.553,0Z" transform="translate(-187.934)" fill="#ffaf5f"/>
        <path id="Path_84" data-name="Path 84" d="M224,176h6.237v2.079H224Z" transform="translate(-174.013 -139.211)" fill="#ffa100"/>
        <path id="Path_85" data-name="Path 85" d="M320,176h6.237v2.079H320Z" transform="translate(-257.54 -139.211)" fill="#ffa100"/>
      </g>
    </g>
  </g>
</svg>
