<svg xmlns="http://www.w3.org/2000/svg" width="65.998" height="64.999" viewBox="0 0 65.998 64.999">
  <g id="Group_135" data-name="Group 135" transform="translate(-0.001 -0.5)">
    <path id="Path_71" data-name="Path 71" d="M231.8,334.223a1.3,1.3,0,1,0-2.528.593l.012.053a1.3,1.3,0,0,0,1.263,1,1.315,1.315,0,0,0,.3-.034,1.3,1.3,0,0,0,.968-1.56Zm0,0" transform="translate(-199.688 -289.833)" fill="#6555b5"/>
    <g id="Group_134" data-name="Group 134">
      <path id="Path_70" data-name="Path 70" d="M64.44,225.575a5.978,5.978,0,0,0-3.687-1.545,5.278,5.278,0,0,0-4.055,1.544l-7.338,7.261a4.872,4.872,0,0,0-.5-.708,4.757,4.757,0,0,0-3.717-1.662H34.872a21.07,21.07,0,0,1-5.616-.746,13.819,13.819,0,0,0-12.891,2.728,18.749,18.749,0,0,0-3.357,3.6l-1.842-1.788a1.309,1.309,0,0,0-.908-.369h-.009a1.312,1.312,0,0,0-.931.4l-8.954,9.3A1.3,1.3,0,0,0,.4,245.43l15.144,14.42a1.3,1.3,0,0,0,1.825-.034l8.871-9.1a1.305,1.305,0,0,0-.026-1.847l-.772-.749,1.768-.2a28.1,28.1,0,0,1,3.234-.187h15.63a11.734,11.734,0,0,0,6.412-1.651l.042-.028a8.652,8.652,0,0,0,1.656-1.5L64.72,232.159a4.535,4.535,0,0,0-.281-6.584Zm-48.03,31.51L3.14,244.45l7.149-7.421,13.192,12.8Zm46.332-26.608L52.21,242.869a6.069,6.069,0,0,1-1.14,1.039,9.233,9.233,0,0,1-4.992,1.229H30.447a30.665,30.665,0,0,0-3.528.2l-3.886.436-8.137-7.9a16.193,16.193,0,0,1,3.111-3.423,11.176,11.176,0,0,1,10.556-2.237,23.662,23.662,0,0,0,6.309.84H45.145a2.346,2.346,0,0,1,2.337,2.542,2.812,2.812,0,0,1-.608,1.8,2.206,2.206,0,0,1-1.77.743H36.162a1.3,1.3,0,0,0,0,2.6H45.1a4.815,4.815,0,0,0,3.749-1.659,5.332,5.332,0,0,0,1.223-3.308l8.452-8.363a3.039,3.039,0,0,1,4.151.069,1.956,1.956,0,0,1,.063,2.993Zm0,0" transform="translate(0 -194.71)" fill="#6555b5"/>
      <path id="Path_72" data-name="Path 72" d="M46.834,27.892H59.485a3.124,3.124,0,0,0,1.845-.6,3.124,3.124,0,0,0,1.845.6H75.826a3.124,3.124,0,0,0,1.845-.6,3.124,3.124,0,0,0,1.845.6H92.166a3.147,3.147,0,0,0,3.143-3.144v-5.9a6.807,6.807,0,0,0-3.7-6.087,7.489,7.489,0,1,0-11.532,0,6.8,6.8,0,0,0-2.4,2.061,6.788,6.788,0,0,0-2.4-2.061,7.489,7.489,0,1,0-11.531,0,6.788,6.788,0,0,0-2.4,2.061,6.794,6.794,0,0,0-2.4-2.062,7.488,7.488,0,1,0-11.531,0,6.808,6.808,0,0,0-3.7,6.087v5.9a3.147,3.147,0,0,0,3.144,3.144ZM85.842,3.1a4.892,4.892,0,1,1-4.892,4.892A4.9,4.9,0,0,1,85.842,3.1ZM82.468,14.672a7.462,7.462,0,0,0,6.745,0,4.218,4.218,0,0,1,3.5,4.177v5.9a.547.547,0,0,1-.547.547H79.516a.547.547,0,0,1-.546-.547v-5.9A4.218,4.218,0,0,1,82.468,14.672ZM69.5,3.1a4.892,4.892,0,1,1-4.892,4.892A4.9,4.9,0,0,1,69.5,3.1ZM66.128,14.672a7.462,7.462,0,0,0,6.745,0,4.219,4.219,0,0,1,3.5,4.177v5.9a.547.547,0,0,1-.547.547H63.175a.547.547,0,0,1-.547-.547v-5.9A4.219,4.219,0,0,1,66.128,14.672ZM53.16,3.1a4.892,4.892,0,1,1-4.892,4.892A4.9,4.9,0,0,1,53.16,3.1ZM46.288,18.849a4.219,4.219,0,0,1,3.5-4.177,7.462,7.462,0,0,0,6.745,0,4.218,4.218,0,0,1,3.5,4.177v5.9a.547.547,0,0,1-.547.547H46.834a.547.547,0,0,1-.547-.547Zm0,0" transform="translate(-38.058)" fill="#6555b5"/>
    </g>
  </g>
</svg>
