<svg xmlns="http://www.w3.org/2000/svg" width="59" height="61.026" viewBox="0 0 59 61.026">
  <g id="check-list" transform="translate(-8.5)">
    <path id="Path_172" data-name="Path 172" d="M65.712,30.036h-5.96v-2.67a7.037,7.037,0,0,0-5.364-6.8V1.788A1.788,1.788,0,0,0,52.6,0H10.288A1.788,1.788,0,0,0,8.5,1.788V50.776a1.788,1.788,0,0,0,1.788,1.788H37.821v1.465a7.011,7.011,0,0,0,7.008,7H60.492a7.011,7.011,0,0,0,7.008-7v-22.2a1.788,1.788,0,0,0-1.788-1.788Zm-9.535-2.67v2.67H49.144v-2.67a3.517,3.517,0,0,1,7.032,0Zm-44.1,21.621V3.576H50.813V20.6a7.034,7.034,0,0,0-5.244,6.766v2.67h-5.96a1.788,1.788,0,0,0-1.788,1.788V48.988Zm51.848,5.041a3.431,3.431,0,0,1-3.433,3.422H44.83A3.431,3.431,0,0,1,41.4,54.029V33.612h4.172V38.32a1.788,1.788,0,1,0,3.576,0V33.612h7.032V38.32a1.788,1.788,0,1,0,3.576,0V33.612h4.172Z" fill="#6555b5"/>
    <path id="Path_173" data-name="Path 173" d="M73.849,60.57l-2.032,2.183-.136-.169a1.788,1.788,0,0,0-2.787,2.24l1.43,1.78a1.788,1.788,0,0,0,1.329.667h.065a1.788,1.788,0,0,0,1.308-.57l3.44-3.695a1.788,1.788,0,0,0-2.617-2.437Z" transform="translate(-52.848 -52.849)" fill="#6555b5"/>
    <path id="Path_174" data-name="Path 174" d="M171.288,79.076h15.972a1.788,1.788,0,1,0,0-3.576H171.288a1.788,1.788,0,0,0,0,3.576Z" transform="translate(-141.81 -66.501)" fill="#6555b5"/>
    <path id="Path_175" data-name="Path 175" d="M73.849,151.57l-2.032,2.183-.136-.169a1.788,1.788,0,0,0-2.787,2.24l1.43,1.78a1.788,1.788,0,0,0,1.329.667h.065a1.788,1.788,0,0,0,1.308-.57l3.44-3.695a1.788,1.788,0,0,0-2.617-2.437Z" transform="translate(-52.848 -133.002)" fill="#6555b5"/>
    <path id="Path_176" data-name="Path 176" d="M171.288,170.076H181.3a1.788,1.788,0,1,0,0-3.576H171.288a1.788,1.788,0,0,0,0,3.576Z" transform="translate(-141.81 -146.655)" fill="#6555b5"/>
    <path id="Path_177" data-name="Path 177" d="M73.849,242.57l-2.032,2.183-.136-.169a1.788,1.788,0,0,0-2.787,2.24l1.43,1.78a1.788,1.788,0,0,0,1.329.667h.065a1.788,1.788,0,0,0,1.308-.57l3.44-3.695a1.788,1.788,0,0,0-2.617-2.437Z" transform="translate(-52.848 -213.156)" fill="#6555b5"/>
    <path id="Path_178" data-name="Path 178" d="M174.267,257.5h-2.979a1.788,1.788,0,1,0,0,3.576h2.979a1.788,1.788,0,1,0,0-3.576Z" transform="translate(-141.81 -226.808)" fill="#6555b5"/>
  </g>
</svg>
