<svg xmlns="http://www.w3.org/2000/svg" width="63.611" height="63.61" viewBox="0 0 63.611 63.61">
  <g id="trade" transform="translate(0 -0.004)">
    <g id="Group_56" data-name="Group 56" transform="translate(4.241 53.013)">
      <g id="Group_55" data-name="Group 55">
        <path id="Path_169" data-name="Path 169" d="M35.181,400a3.181,3.181,0,1,0,3.181,3.181A3.18,3.18,0,0,0,35.181,400Zm0,4.241a1.06,1.06,0,1,1,1.06-1.06A1.06,1.06,0,0,1,35.181,404.245Z" transform="translate(-32 -400.004)" fill="#6555b5"/>
      </g>
    </g>
    <g id="Group_58" data-name="Group 58" transform="translate(0 0.004)">
      <g id="Group_57" data-name="Group 57" transform="translate(0 0)">
        <path id="Path_170" data-name="Path 170" d="M62.881,44.9a5.122,5.122,0,0,0-4.393-2.487h-.224a5.135,5.135,0,0,0-2.41.6l-8.147,4.346V32.869h3.711a5.831,5.831,0,0,0,0-11.662H28.625a5.3,5.3,0,1,1,0-10.6h3.711l6.043,8.057a1.06,1.06,0,0,0,.848.424H62.55a1.06,1.06,0,0,0,1.06-1.06V1.064A1.06,1.06,0,0,0,62.55,0H39.226a1.06,1.06,0,0,0-.848.424L32.335,8.485H28.625a7.421,7.421,0,1,0,0,14.842H51.418a3.711,3.711,0,0,1,0,7.421H47.708V26.508a1.06,1.06,0,0,0-1.06-1.06H16.963a1.06,1.06,0,0,0-1.06,1.06v15.9a15.774,15.774,0,0,0-2.382,1.06H0v2.12H12.722v15.9H0v2.12H40.172a5.3,5.3,0,0,0,2.728-.756L61.123,51.925A5.122,5.122,0,0,0,62.881,44.9ZM41.36,12.544A3.18,3.18,0,1,0,37.3,8.485H34.986l4.771-6.361H61.49V16.967H39.757l-4.771-6.361H37.3A3.18,3.18,0,0,0,41.36,12.544Zm-2.133-3a1.06,1.06,0,1,1,1.06,1.06A1.06,1.06,0,0,1,39.226,9.546ZM29.685,27.569h4.241v4.241H29.685Zm-11.662,0h9.542v5.3a1.06,1.06,0,0,0,1.06,1.06h6.361a1.06,1.06,0,0,0,1.06-1.06v-5.3h9.542v20.92l-1.737.926a4.771,4.771,0,0,0-4.624-5.943H28.9a16.088,16.088,0,0,0-10.878-1.645ZM60.032,50.107,41.809,61.04a3.18,3.18,0,0,1-1.637.454H14.842V45.167a13.963,13.963,0,0,1,13.252.289,1.052,1.052,0,0,0,.53.135h10.6a2.65,2.65,0,1,1,0,5.3H29.685a1.06,1.06,0,1,0,0,2.12H41.347a1.06,1.06,0,0,0,.5-.124l15.007-8a3.011,3.011,0,0,1,1.412-.353h.224a3,3,0,0,1,1.544,5.575Z" transform="translate(0 -0.004)" fill="#6555b5"/>
      </g>
    </g>
    <g id="Group_60" data-name="Group 60" transform="translate(50.887 4.245)">
      <g id="Group_59" data-name="Group 59">
        <path id="Path_171" data-name="Path 171" d="M390.341,38.93a2.362,2.362,0,0,0-1.3-1.875l-2.79-1.4a.25.25,0,0,1,.106-.475h3.995v-2.12h-2.12V32h-2.12V33.09a2.362,2.362,0,0,0-.81,4.465l2.79,1.4a.25.25,0,0,1-.106.475H383.99v2.12h2.12v1.06h2.12V41.52A2.362,2.362,0,0,0,390.341,38.93Z" transform="translate(-383.989 -32.004)" fill="#6555b5"/>
      </g>
    </g>
  </g>
</svg>
