<svg id="XMLID_375_" xmlns="http://www.w3.org/2000/svg" width="65.99" height="65.99" viewBox="0 0 65.99 65.99">
  <g id="XMLID_48_">
    <path id="XMLID_92_" d="M68.755,296.5a1.289,1.289,0,0,0-1.289,1.289v4.253a6.444,6.444,0,0,1-12.889,0v-4.253a1.289,1.289,0,0,0-2.578,0v4.253a9.022,9.022,0,0,0,18.044,0v-4.253A1.289,1.289,0,0,0,68.755,296.5Z" transform="translate(-45.298 -258.285)" fill="#6555b5"/>
    <path id="XMLID_104_" d="M64.7,14.95H56.449a15.208,15.208,0,0,0-30.411,0H17.786A1.289,1.289,0,0,0,16.5,16.239v16.24H1.289A1.289,1.289,0,0,0,0,33.768V64.7A1.289,1.289,0,0,0,1.289,65.99H64.7A1.289,1.289,0,0,0,65.99,64.7V16.239A1.289,1.289,0,0,0,64.7,14.95Zm-36.088.258a12.631,12.631,0,1,1,25.262,0v9.151a1.289,1.289,0,0,1-2.578,0V15.209a10.053,10.053,0,1,0-20.106,0v9.151a1.289,1.289,0,0,1-2.578,0Zm20.1-.258H33.775a7.473,7.473,0,0,1,14.938,0Zm14.7,48.462H31.448V55.034a1.289,1.289,0,1,0-2.578,0v8.378H2.578V35.057H28.871v8.378a1.289,1.289,0,1,0,2.578,0V33.768a1.289,1.289,0,0,0-1.289-1.289H19.075V17.528h6.96v6.831a3.867,3.867,0,0,0,7.733,0V17.528H48.719v6.831a3.867,3.867,0,1,0,7.733,0V17.528h6.96Z" fill="#6555b5"/>
    <path id="XMLID_122_" d="M225.289,372a1.29,1.29,0,1,0,.911.378A1.3,1.3,0,0,0,225.289,372Z" transform="translate(-195.129 -324.054)" fill="#6555b5"/>
  </g>
</svg>
