<svg id="newspaper" xmlns="http://www.w3.org/2000/svg" width="66.133" height="66.133" viewBox="0 0 66.133 66.133">
  <g id="Group_61" data-name="Group 61">
    <path id="Path_205" data-name="Path 205" d="M63.771,16.533H51.962V2.362A2.362,2.362,0,0,0,49.6,0H2.362A2.362,2.362,0,0,0,0,2.362V56.685a9.448,9.448,0,0,0,9.448,9.448H56.685a9.448,9.448,0,0,0,9.448-9.448V18.9A2.362,2.362,0,0,0,63.771,16.533ZM18.9,11.809H33.066a2.362,2.362,0,0,1,0,4.724H18.9a2.362,2.362,0,1,1,0-4.724ZM40.152,56.685H11.809a2.362,2.362,0,1,1,0-4.724H40.152a2.362,2.362,0,0,1,0,4.724Zm0-9.448H11.809a2.362,2.362,0,1,1,0-4.724H40.152a2.362,2.362,0,0,1,0,4.724Zm0-9.447H11.809a2.362,2.362,0,0,1,0-4.724H40.152a2.362,2.362,0,0,1,0,4.724Zm0-9.448H11.809a2.362,2.362,0,1,1,0-4.724H40.152a2.362,2.362,0,0,1,0,4.724ZM61.409,56.685a4.724,4.724,0,1,1-9.447,0V21.257h9.448V56.685Z" fill="#6555b5"/>
  </g>
</svg>
