<svg xmlns="http://www.w3.org/2000/svg" width="68" height="68" viewBox="0 0 68 68">
  <g id="gear" transform="translate(0 0)">
    <path id="Path_206" data-name="Path 206" d="M149.864,133.609a16.255,16.255,0,1,0,16.255,16.255A16.274,16.274,0,0,0,149.864,133.609Zm0,28.446a12.191,12.191,0,1,1,12.191-12.191A12.205,12.205,0,0,1,149.864,162.055Zm0,0" transform="translate(-115.864 -115.864)" fill="#6555b5"/>
    <path id="Path_207" data-name="Path 207" d="M66.4,26.257l-5.226-1.136a28.444,28.444,0,0,0-1.682-4.056l2.893-4.5a2.032,2.032,0,0,0-.272-2.535L53.971,5.887a2.032,2.032,0,0,0-2.535-.272l-4.5,2.893a28.444,28.444,0,0,0-4.056-1.682L41.742,1.6A2.032,2.032,0,0,0,39.757,0H28.243a2.032,2.032,0,0,0-1.985,1.6L25.121,6.826a28.443,28.443,0,0,0-4.056,1.682l-4.5-2.893a2.032,2.032,0,0,0-2.535.272L5.887,14.029a2.032,2.032,0,0,0-.272,2.535l2.893,4.5a28.444,28.444,0,0,0-1.682,4.056L1.6,26.257A2.032,2.032,0,0,0,0,28.243V39.757a2.032,2.032,0,0,0,1.6,1.985l5.226,1.136a28.443,28.443,0,0,0,1.682,4.056l-2.893,4.5a2.032,2.032,0,0,0,.272,2.535l8.142,8.142a2.032,2.032,0,0,0,2.535.272l4.5-2.893a28.445,28.445,0,0,0,4.056,1.682L26.257,66.4A2.032,2.032,0,0,0,28.243,68H39.757a2.032,2.032,0,0,0,1.985-1.6l1.136-5.226a28.444,28.444,0,0,0,4.056-1.682l4.5,2.893a2.032,2.032,0,0,0,2.535-.272l8.142-8.142a2.032,2.032,0,0,0,.272-2.535l-2.893-4.5a28.444,28.444,0,0,0,1.682-4.056L66.4,41.742A2.032,2.032,0,0,0,68,39.757V28.243A2.032,2.032,0,0,0,66.4,26.257ZM63.936,38.119l-4.792,1.042a2.033,2.033,0,0,0-1.526,1.44,24.38,24.38,0,0,1-2.251,5.429,2.031,2.031,0,0,0,.06,2.1l2.654,4.128-5.826,5.826-4.128-2.654a2.03,2.03,0,0,0-2.1-.06,24.394,24.394,0,0,1-5.43,2.251,2.033,2.033,0,0,0-1.44,1.526l-1.042,4.792H29.881l-1.042-4.792a2.033,2.033,0,0,0-1.44-1.526,24.38,24.38,0,0,1-5.429-2.251,2.032,2.032,0,0,0-2.1.06l-4.128,2.654L9.919,52.255l2.653-4.128a2.031,2.031,0,0,0,.061-2.1A24.406,24.406,0,0,1,10.382,40.6a2.032,2.032,0,0,0-1.525-1.44L4.064,38.119V29.881l4.792-1.042a2.033,2.033,0,0,0,1.526-1.44,24.379,24.379,0,0,1,2.251-5.429,2.031,2.031,0,0,0-.06-2.1L9.919,15.745l5.826-5.826,4.128,2.654a2.03,2.03,0,0,0,2.1.06,24.394,24.394,0,0,1,5.43-2.251,2.033,2.033,0,0,0,1.44-1.526l1.042-4.792h8.239l1.042,4.792a2.033,2.033,0,0,0,1.44,1.526,24.379,24.379,0,0,1,5.429,2.251,2.032,2.032,0,0,0,2.1-.06l4.128-2.654,5.826,5.826-2.653,4.128a2.031,2.031,0,0,0-.061,2.1A24.381,24.381,0,0,1,57.618,27.4a2.032,2.032,0,0,0,1.525,1.44l4.793,1.042Zm0,0" fill="#6555b5"/>
  </g>
</svg>
