<svg xmlns="http://www.w3.org/2000/svg" width="63.102" height="64.153" viewBox="0 0 63.102 64.153">
  <g id="Outline" transform="translate(-7.999 -8)">
    <rect id="Rectangle_66" data-name="Rectangle 66" width="2" height="2" transform="translate(22.547 66.076)" fill="#6555b5"/>
    <path id="Path_166" data-name="Path 166" d="M46.913,240.827H29.034V225.052A1.052,1.052,0,0,0,27.982,224H9.052A1.052,1.052,0,0,0,8,225.052v33.654a1.052,1.052,0,0,0,1.052,1.052H46.913a1.052,1.052,0,0,0,1.052-1.052V241.879A1.052,1.052,0,0,0,46.913,240.827Zm-11.569,2.1h4.207v4.207H35.344ZM16.414,226.1H20.62v4.207H16.414Zm-6.31,0H14.31v5.258a1.052,1.052,0,0,0,1.052,1.052h6.31a1.052,1.052,0,0,0,1.052-1.052V226.1h4.207v14.724H10.1Zm6.31,16.827H20.62v4.207H16.414Zm-6.31,0H14.31v5.258a1.052,1.052,0,0,0,1.052,1.052h6.31a1.052,1.052,0,0,0,1.052-1.052v-5.258h4.207v14.724H10.1Zm35.758,14.724H29.034V242.931h4.207v5.258a1.052,1.052,0,0,0,1.052,1.052H40.6a1.052,1.052,0,0,0,1.052-1.052v-5.258h4.207Z" transform="translate(-0.001 -187.604)" fill="#6555b5"/>
    <rect id="Rectangle_67" data-name="Rectangle 67" width="1" height="2" transform="translate(42.547 66.076)" fill="#6555b5"/>
    <rect id="Rectangle_68" data-name="Rectangle 68" width="2" height="2" transform="translate(22.547 49.076)" fill="#6555b5"/>
    <path id="Path_167" data-name="Path 167" d="M69.8,21.642a1.044,1.044,0,0,0,.247.029,1.055,1.055,0,0,0,.91-.524A1.083,1.083,0,0,0,71.1,20.6V16.413a1.052,1.052,0,0,0-.8-1.022L39.8,8.029a1.047,1.047,0,0,0-.494,0L8.8,15.391A1.052,1.052,0,0,0,8,16.413V20.59a1.094,1.094,0,0,0,.181.62,1.053,1.053,0,0,0,1.117.432l1.857-.448v13.1h2.1V20.687L39.55,14.34l26.292,6.346V70.05h-6.31V29.034a1.052,1.052,0,0,0-1.052-1.052H20.619a1.052,1.052,0,0,0-1.052,1.052V33.24a1.052,1.052,0,0,0,1.052,1.052H57.429v2.1H31.136v2.1H57.429v2.1H31.136v2.1H57.429v2.1H31.136v2.1H57.429V70.05H50.067v2.1H71.1v-2.1H67.946V21.194ZM21.671,32.189v-2.1H57.429v2.1ZM39.55,12.207a1.044,1.044,0,0,0-.247.029L10.1,19.284V17.242L39.55,10.133,69,17.242v2.043L39.8,12.236A1.044,1.044,0,0,0,39.55,12.207Z" transform="translate(0 0)" fill="#6555b5"/>
    <path id="Path_168" data-name="Path 168" d="M215.362,94.31a3.155,3.155,0,0,0,0-6.31h-4.207a3.155,3.155,0,0,0,0,6.31ZM210.1,91.155a1.053,1.053,0,0,1,1.052-1.052h4.207a1.052,1.052,0,1,1,0,2.1h-4.207A1.053,1.053,0,0,1,210.1,91.155Z" transform="translate(-173.709 -69.483)" fill="#6555b5"/>
  </g>
</svg>
